<?xml version="1.0" encoding="UTF-8" standalone="no"?>
<!-- Copyright 2021 mathsisfun.com -->

<svg
   width="234.732"
   height="247.089"
   version="1.1"
   style="stroke-width:0.2"
   id="svg301"
   sodipodi:docname="https://www.mathsisfun.com/images/art/sage-guess.svg"
   inkscape:version="1.1.2 (0a00cf5339, 2022-02-04, custom)"
   xmlns:inkscape="http://www.inkscape.org/namespaces/inkscape"
   xmlns:sodipodi="http://sodipodi.sourceforge.net/DTD/sodipodi-0.dtd"
   xmlns:xlink="http://www.w3.org/1999/xlink"
   xmlns="http://www.w3.org/2000/svg"
   xmlns:svg="http://www.w3.org/2000/svg">
  <sodipodi:namedview
     id="namedview303"
     pagecolor="#ffffff"
     bordercolor="#666666"
     borderopacity="1.0"
     inkscape:pageshadow="2"
     inkscape:pageopacity="0.0"
     inkscape:pagecheckerboard="0"
     showgrid="false"
     inkscape:current-layer="svg301"
     inkscape:snap-global="false" />
  <defs
     id="defs108">
    <linearGradient
       inkscape:collect="always"
       id="linearGradient210913">
      <stop
         style="stop-color:#7d4e37;stop-opacity:1"
         offset="0"
         id="stop210909" />
      <stop
         style="stop-color:#b27a44;stop-opacity:1"
         offset="1"
         id="stop210911" />
    </linearGradient>
    <linearGradient
       inkscape:collect="always"
       id="linearGradient209795">
      <stop
         style="stop-color:#9f6a36;stop-opacity:1"
         offset="0"
         id="stop209791" />
      <stop
         style="stop-color:#c48a51;stop-opacity:1"
         offset="1"
         id="stop209793" />
    </linearGradient>
    <linearGradient
       inkscape:collect="always"
       id="linearGradient196686">
      <stop
         style="stop-color:#c48a51;stop-opacity:0.741313"
         offset="0"
         id="stop196682" />
      <stop
         style="stop-color:#c48a51;stop-opacity:0.065637"
         offset="1"
         id="stop196684" />
    </linearGradient>
    <linearGradient
       inkscape:collect="always"
       id="linearGradient182074">
      <stop
         style="stop-color:#c48a51;stop-opacity:1"
         offset="0"
         id="stop182070" />
      <stop
         style="stop-color:#d1a57a;stop-opacity:0.282353"
         offset="0.725989"
         id="stop186978" />
      <stop
         style="stop-color:#c28850;stop-opacity:0.050193"
         offset="1"
         id="stop182072" />
    </linearGradient>
    <linearGradient
       inkscape:collect="always"
       id="linearGradient181716">
      <stop
         style="stop-color:#000000;stop-opacity:1"
         offset="0"
         id="stop181712" />
      <stop
         style="stop-color:#000000;stop-opacity:0"
         offset="1"
         id="stop181714" />
    </linearGradient>
    <linearGradient
       inkscape:collect="always"
       id="linearGradient176255">
      <stop
         style="stop-color:#744634;stop-opacity:1"
         offset="0"
         id="stop176251" />
      <stop
         style="stop-color:#000000;stop-opacity:0"
         offset="1"
         id="stop176253" />
    </linearGradient>
    <linearGradient
       inkscape:collect="always"
       id="linearGradient174774">
      <stop
         style="stop-color:#000000;stop-opacity:1"
         offset="0"
         id="stop174770" />
      <stop
         style="stop-color:#000000;stop-opacity:0"
         offset="1"
         id="stop174772" />
    </linearGradient>
    <linearGradient
       inkscape:collect="always"
       id="linearGradient129823">
      <stop
         style="stop-color:#c48a51;stop-opacity:1"
         offset="0"
         id="stop129819" />
      <stop
         style="stop-color:#754634;stop-opacity:1"
         offset="1"
         id="stop129821" />
    </linearGradient>
    <linearGradient
       inkscape:collect="always"
       id="linearGradient129321">
      <stop
         style="stop-color:#000000;stop-opacity:1"
         offset="0"
         id="stop129317" />
      <stop
         style="stop-color:#000000;stop-opacity:0"
         offset="1"
         id="stop129319" />
    </linearGradient>
    <linearGradient
       inkscape:collect="always"
       id="linearGradient94327">
      <stop
         style="stop-color:#c48a51;stop-opacity:1"
         offset="0"
         id="stop94323" />
      <stop
         style="stop-color:#b6785a;stop-opacity:1"
         offset="0.104566"
         id="stop128243" />
      <stop
         style="stop-color:#744634;stop-opacity:1"
         offset="0.279232"
         id="stop94523" />
      <stop
         style="stop-color:#784936;stop-opacity:1"
         offset="0.780395"
         id="stop94589" />
      <stop
         style="stop-color:#865939;stop-opacity:1"
         offset="0.880816"
         id="stop128885" />
      <stop
         style="stop-color:#c0874f;stop-opacity:1"
         offset="1"
         id="stop94325" />
    </linearGradient>
    <linearGradient
       inkscape:collect="always"
       id="linearGradient54499">
      <stop
         style="stop-color:#584430;stop-opacity:1"
         offset="0"
         id="stop54495" />
      <stop
         style="stop-color:#ce9051;stop-opacity:1"
         offset="1"
         id="stop54497" />
    </linearGradient>
    <linearGradient
       inkscape:collect="always"
       id="linearGradient53777">
      <stop
         style="stop-color:#b27a49;stop-opacity:1"
         offset="0"
         id="stop53773" />
      <stop
         style="stop-color:#9b6a40;stop-opacity:0"
         offset="1"
         id="stop53775" />
    </linearGradient>
    <linearGradient
       inkscape:collect="always"
       id="linearGradient53769">
      <stop
         style="stop-color:#b57a48;stop-opacity:1"
         offset="0"
         id="stop53765" />
      <stop
         style="stop-color:#98673d;stop-opacity:1"
         offset="1"
         id="stop53767" />
    </linearGradient>
    <linearGradient
       inkscape:collect="always"
       id="linearGradient49041">
      <stop
         style="stop-color:#594831;stop-opacity:1"
         offset="0"
         id="stop49037" />
      <stop
         style="stop-color:#54432e;stop-opacity:1"
         offset="0.583235"
         id="stop49493" />
      <stop
         style="stop-color:#3e2a28;stop-opacity:1"
         offset="1"
         id="stop49039" />
    </linearGradient>
    <linearGradient
       inkscape:collect="always"
       id="linearGradient48715">
      <stop
         style="stop-color:#dfc9b4;stop-opacity:1"
         offset="0"
         id="stop48711" />
      <stop
         style="stop-color:#dfc9b4;stop-opacity:0"
         offset="1"
         id="stop48713" />
    </linearGradient>
    <linearGradient
       inkscape:collect="always"
       id="linearGradient47371">
      <stop
         style="stop-color:#d7d0c6;stop-opacity:0.724806"
         offset="0"
         id="stop47367" />
      <stop
         style="stop-color:#695b49;stop-opacity:0"
         offset="1"
         id="stop47369" />
    </linearGradient>
    <linearGradient
       inkscape:collect="always"
       xlink:href="#linearGradient49041"
       id="linearGradient49043"
       x1="159.698"
       y1="90.2075"
       x2="173.561"
       y2="48.1137"
       gradientUnits="userSpaceOnUse"
       gradientTransform="matrix(-1.00336,-0.129859,-0.13322,0.978053,130.756,11.9162)" />
    <linearGradient
       inkscape:collect="always"
       xlink:href="#linearGradient53769"
       id="linearGradient53771"
       x1="173.612"
       y1="33.3212"
       x2="192.764"
       y2="33.3212"
       gradientUnits="userSpaceOnUse"
       gradientTransform="matrix(-0.886761,-0.129145,-0.129152,0.886239,-104.553,-3.22229)" />
    <linearGradient
       inkscape:collect="always"
       xlink:href="#linearGradient53777"
       id="linearGradient53779"
       x1="132.473"
       y1="38.3429"
       x2="151.64"
       y2="38.3429"
       gradientUnits="userSpaceOnUse"
       gradientTransform="matrix(-0.819339,-0.362914,-0.36278,0.818835,-128.118,60.6261)" />
    <linearGradient
       inkscape:collect="always"
       xlink:href="#linearGradient54499"
       id="linearGradient54501"
       x1="183.897"
       y1="20.516"
       x2="184.71"
       y2="43.2689"
       gradientUnits="userSpaceOnUse"
       gradientTransform="matrix(-0.886761,-0.129145,-0.129152,0.886239,-104.553,-3.22229)" />
    <linearGradient
       inkscape:collect="always"
       xlink:href="#linearGradient54499"
       id="linearGradient58346"
       x1="141.987"
       y1="23.4646"
       x2="145.991"
       y2="42.4997"
       gradientUnits="userSpaceOnUse"
       gradientTransform="matrix(-0.819339,-0.362914,-0.36278,0.818835,-128.118,60.6261)" />
    <linearGradient
       inkscape:collect="always"
       xlink:href="#linearGradient94327"
       id="linearGradient107839"
       x1="-311.807"
       y1="198.847"
       x2="-210.554"
       y2="228.615"
       gradientUnits="userSpaceOnUse"
       gradientTransform="translate(329.051,-44.9509)" />
    <linearGradient
       inkscape:collect="always"
       xlink:href="#linearGradient129321"
       id="linearGradient129323"
       x1="-259.929"
       y1="117.101"
       x2="-254.052"
       y2="163.144"
       gradientUnits="userSpaceOnUse"
       gradientTransform="translate(334.643,-12.8884)" />
    <linearGradient
       inkscape:collect="always"
       xlink:href="#linearGradient129823"
       id="linearGradient129825"
       x1="-258.555"
       y1="128.732"
       x2="-262.44"
       y2="163.517"
       gradientUnits="userSpaceOnUse"
       gradientTransform="translate(334.643,-12.8884)" />
    <linearGradient
       inkscape:collect="always"
       xlink:href="#linearGradient174774"
       id="linearGradient174776"
       x1="-304.574"
       y1="152.308"
       x2="-298.206"
       y2="148.394"
       gradientUnits="userSpaceOnUse"
       gradientTransform="translate(334.643,-12.8884)" />
    <linearGradient
       inkscape:collect="always"
       xlink:href="#linearGradient176255"
       id="linearGradient176257"
       x1="-276.349"
       y1="152.585"
       x2="-293.049"
       y2="131.84"
       gradientUnits="userSpaceOnUse"
       gradientTransform="translate(334.643,-12.8884)" />
    <linearGradient
       inkscape:collect="always"
       xlink:href="#linearGradient181716"
       id="linearGradient181718"
       x1="-259.907"
       y1="141.614"
       x2="-266.904"
       y2="132.651"
       gradientUnits="userSpaceOnUse"
       gradientTransform="translate(334.643,-12.8884)" />
    <linearGradient
       inkscape:collect="always"
       xlink:href="#linearGradient182074"
       id="linearGradient182076"
       x1="-254.635"
       y1="187.353"
       x2="-272.835"
       y2="132.52"
       gradientUnits="userSpaceOnUse"
       gradientTransform="translate(334.643,-12.8884)" />
    <radialGradient
       inkscape:collect="always"
       xlink:href="#linearGradient196686"
       id="radialGradient196688"
       cx="-245.433"
       cy="153.429"
       fx="-245.433"
       fy="153.429"
       r="20.9541"
       gradientTransform="matrix(1,0,0,1.55446,336.507,-107.466)"
       gradientUnits="userSpaceOnUse" />
    <linearGradient
       inkscape:collect="always"
       xlink:href="#linearGradient209795"
       id="linearGradient209797"
       x1="-237.577"
       y1="214.616"
       x2="-219.814"
       y2="207.037"
       gradientUnits="userSpaceOnUse"
       gradientTransform="translate(334.841,-12.7566)" />
    <linearGradient
       inkscape:collect="always"
       xlink:href="#linearGradient210913"
       id="linearGradient210915"
       x1="-236.998"
       y1="206.186"
       x2="-231.527"
       y2="212.184"
       gradientUnits="userSpaceOnUse"
       gradientTransform="translate(334.05,-12.8884)" />
    <radialGradient
       inkscape:collect="always"
       xlink:href="#linearGradient47371"
       id="radialGradient8818"
       gradientUnits="userSpaceOnUse"
       gradientTransform="matrix(1.5689,0.267385,-0.259141,3.122,-219.184,-196.485)"
       cx="165.823"
       cy="75.506"
       fx="165.823"
       fy="75.506"
       r="1.59865" />
    <linearGradient
       inkscape:collect="always"
       xlink:href="#linearGradient48715"
       id="linearGradient8820"
       gradientUnits="userSpaceOnUse"
       gradientTransform="matrix(0.801639,0,0,0.794872,-95.9418,17.9514)"
       x1="173.704"
       y1="85.3856"
       x2="171.445"
       y2="77.9704" />
    <linearGradient
       inkscape:collect="always"
       xlink:href="#linearGradient49041"
       id="linearGradient10753"
       gradientUnits="userSpaceOnUse"
       gradientTransform="matrix(1.29857,-0.129859,0.172416,0.978053,-170.677,8.58234)"
       x1="159.698"
       y1="90.2075"
       x2="173.561"
       y2="48.1137" />
    <linearGradient
       id="id5"
       gradientTransform="matrix(0,-0.757469,0.643331,0,87.8858,-354.795)"
       xlink:href="#linearGradient4301"
       x1="-732.703"
       y1="237.264"
       x2="-728.111"
       y2="103.808"
       gradientUnits="userSpaceOnUse" />
    <linearGradient
       id="linearGradient4301">
      <stop
         offset="0"
         style="stop-color:#003c5d;stop-opacity:1"
         id="stop4295" />
      <stop
         offset="0.305"
         style="stop-color:#057dbf;stop-opacity:1"
         id="stop4297" />
      <stop
         offset="1"
         style="stop-color:#8fd7ff;stop-opacity:1"
         id="stop4299" />
    </linearGradient>
    <radialGradient
       id="id6"
       r="19.5106"
       fx="-207.624"
       fy="206.138"
       cx="-207.6"
       cy="206.1"
       gradientTransform="matrix(0.716302,0,0,0.501002,-58.4073,-222.177)"
       xlink:href="#id1"
       gradientUnits="userSpaceOnUse" />
    <linearGradient
       id="id1">
      <stop
         offset="0"
         style="stop-color:white;stop-opacity:1"
         id="stop25" />
      <stop
         offset="1"
         style="stop-color:white;stop-opacity:0"
         id="stop27" />
    </linearGradient>
    <linearGradient
       id="linearGradient3351">
      <stop
         offset="0"
         style="stop-color:#ffffff;stop-opacity:1"
         id="stop3345" />
      <stop
         offset="0.305"
         style="stop-color:#1aaaf9;stop-opacity:1"
         id="stop3347" />
      <stop
         offset="1"
         style="stop-color:#ffffff;stop-opacity:1"
         id="stop3349" />
    </linearGradient>
    <radialGradient
       inkscape:collect="always"
       xlink:href="#id1"
       id="radialGradient1794"
       gradientUnits="userSpaceOnUse"
       gradientTransform="matrix(0.716302,0,0,0.501002,81.1115,130.016)"
       cx="-207.6"
       cy="206.1"
       fx="-207.624"
       fy="206.138"
       r="19.5106" />
    <linearGradient
       inkscape:collect="always"
       xlink:href="#linearGradient4301"
       id="linearGradient1796"
       gradientUnits="userSpaceOnUse"
       gradientTransform="matrix(0,0.757469,0.643331,0,-10.8801,754.338)"
       x1="-732.703"
       y1="237.264"
       x2="-728.111"
       y2="103.808" />
    <linearGradient
       inkscape:collect="always"
       xlink:href="#linearGradient3351"
       id="linearGradient1800"
       gradientUnits="userSpaceOnUse"
       gradientTransform="matrix(0,-0.614596,0.460416,0,21.5159,-629.163)"
       x1="-710.656"
       y1="244.476"
       x2="-707.901"
       y2="110.091" />
    <linearGradient
       inkscape:collect="always"
       xlink:href="#linearGradient4301"
       id="linearGradient5467"
       gradientUnits="userSpaceOnUse"
       gradientTransform="matrix(0,0.757469,0.643331,0,-10.8801,754.338)"
       x1="-732.703"
       y1="237.264"
       x2="-728.111"
       y2="103.808" />
    <radialGradient
       inkscape:collect="always"
       xlink:href="#id1"
       id="radialGradient5469"
       gradientUnits="userSpaceOnUse"
       gradientTransform="matrix(0.716302,0,0,0.501002,81.1115,130.016)"
       cx="-207.6"
       cy="206.1"
       fx="-207.624"
       fy="206.138"
       r="19.5106" />
    <linearGradient
       inkscape:collect="always"
       xlink:href="#linearGradient3351"
       id="linearGradient5471"
       gradientUnits="userSpaceOnUse"
       gradientTransform="matrix(0,-0.614596,0.460416,0,21.5159,-629.163)"
       x1="-710.656"
       y1="244.476"
       x2="-707.901"
       y2="110.091" />
    <linearGradient
       inkscape:collect="always"
       xlink:href="#linearGradient4301"
       id="linearGradient5481"
       gradientUnits="userSpaceOnUse"
       gradientTransform="matrix(0,0.757469,0.643331,0,-10.8801,754.338)"
       x1="-732.703"
       y1="237.264"
       x2="-728.111"
       y2="103.808" />
    <radialGradient
       inkscape:collect="always"
       xlink:href="#id1"
       id="radialGradient5483"
       gradientUnits="userSpaceOnUse"
       gradientTransform="matrix(0.716302,0,0,0.501002,81.1115,130.016)"
       cx="-207.6"
       cy="206.1"
       fx="-207.624"
       fy="206.138"
       r="19.5106" />
    <linearGradient
       inkscape:collect="always"
       xlink:href="#linearGradient3351"
       id="linearGradient5485"
       gradientUnits="userSpaceOnUse"
       gradientTransform="matrix(0,-0.614596,0.460416,0,21.5159,-629.163)"
       x1="-710.656"
       y1="244.476"
       x2="-707.901"
       y2="110.091" />
    <linearGradient
       inkscape:collect="always"
       xlink:href="#linearGradient10228"
       id="linearGradient10230"
       x1="-342.296"
       y1="244.615"
       x2="-346.898"
       y2="288.833"
       gradientUnits="userSpaceOnUse"
       gradientTransform="matrix(0.300345,-0.038606,0.034957,0.310908,265.85,-68.7581)" />
    <linearGradient
       inkscape:collect="always"
       id="linearGradient10228">
      <stop
         style="stop-color:#dccbb9;stop-opacity:1"
         offset="0"
         id="stop10224" />
      <stop
         style="stop-color:#a87d53;stop-opacity:1"
         offset="1"
         id="stop10226" />
    </linearGradient>
  </defs>
  <g
     id="g105964"
     transform="translate(0,12.1819)">
    <ellipse
       style="color:#000000;overflow:visible;fill:#000000;fill-opacity:1;stroke:none;stroke-width:0.999998;stroke-miterlimit:4;stroke-dasharray:none;stroke-opacity:0.243243;stop-color:#000000"
       id="ellipse204593"
       cx="72.9041"
       cy="219.39"
       rx="7.94565"
       ry="5.7787"
       transform="rotate(-10.0426)" />
    <path
       style="fill:url(#linearGradient209797);fill-opacity:1;fill-rule:evenodd;stroke:#000000;stroke-width:1px;stroke-linecap:butt;stroke-linejoin:miter;stroke-opacity:1"
       d="m 108.729,192.301 c 9.93,5.255 10.643,12.787 7.034,13.695 -0.758,-4.086 -3.582,-6.286 -4.698,-6.571 2.327,1.134 6.64,6.362 2.554,8.295 -4.086,1.933 -3.351,-3.508 -7.582,-4.946 6.099,4.408 4.788,6.647 0.453,5.739 -4.383,-0.918 -10.2601,-9.339 -9.6481,-10.346 0.646,-1.064 11.8871,-5.866 11.8871,-5.866 z"
       id="path164643"
       sodipodi:nodetypes="ccczcssc" />
    <ellipse
       style="color:#000000;overflow:visible;fill:#000000;fill-opacity:1;stroke:none;stroke-width:1.00001;stroke-miterlimit:4;stroke-dasharray:none;stroke-opacity:0.243243;stop-color:#000000"
       id="ellipse204591"
       cx="83.5159"
       cy="205.725"
       rx="8.20201"
       ry="5.98843" />
    <ellipse
       style="color:#000000;overflow:visible;fill:#000000;fill-opacity:1;stroke:none;stroke-width:1;stroke-miterlimit:4;stroke-dasharray:none;stroke-opacity:0.243243;stop-color:#000000"
       id="path204399"
       cx="29.5839"
       cy="200.924"
       rx="9.22726"
       ry="5.7787" />
    <path
       style="fill:url(#linearGradient107839);fill-opacity:1;fill-rule:evenodd;stroke:#000000;stroke-width:1px;stroke-linecap:butt;stroke-linejoin:miter;stroke-opacity:1"
       d="m 108.195,140.583 c 0,0 11.335,13.972 12.917,17.663 1.582,3.691 0,10.808 0,10.808 l -2.9,-8.699 c 3.535,8.527 1.89,16.405 -1.38,23.695 l 1.395,-9.77 c -1.927,12.088 -9.888,19.312 -21.6321,24.037 -17.625,-17.098 -59.423,-7.204 -71.705,-7.646 C 15.2799,190.325 7.08292,187.94 0.635916,183.026 4.34892,175.792 14.9579,174.237 24.3629,171.691 L 8.01792,176.436 C 12.3919,168.34 19.6399,163.269 30.6899,162.2 l -12.127,-1.318 c 4.221,-0.943 8.362,-2.446 12.917,-1.054 0,0 4.415,0.659 6.195,-0.396 4.164,-2.465 8.436,-12.522 8.436,-12.522 1.819,-3.362 4.043,-3.078 6.196,-3.427 3.507,5.369 7.252,10.499 13.181,13.445 l 37.6981,2.109 c 4.963,-5.877 3.851,-12.26 5.009,-18.454 z"
       id="path90409"
       sodipodi:nodetypes="cscccccsccccccsccccc" />
    <g
       id="g78465"
       transform="matrix(0.890454,-0.275267,0.235174,1.03952,289.222,-90.6839)"
       style="stroke-width:0.20097">
      <path
         style="fill:url(#linearGradient58346);fill-opacity:1;fill-rule:evenodd;stroke:#000000;stroke-width:1.00485px;stroke-linecap:butt;stroke-linejoin:miter;stroke-opacity:1"
         d="m -262.215,58.6553 c 13.345,2.1423 19.229,-28.7132 11.735,-34.5589 -5.318,-4.1482 -21.484,18.0283 -17.948,17.087 z"
         id="path10500"
         sodipodi:nodetypes="cscc" />
      <path
         style="fill:url(#linearGradient53779);fill-opacity:1;fill-rule:evenodd;stroke:#000000;stroke-width:1.00485px;stroke-linecap:butt;stroke-linejoin:miter;stroke-opacity:1"
         d="m -261.659,55.93 c 9.931,1.9163 16.153,-24.1395 9.989,-29.3879 -4.351,-3.7049 -18.233,15.35 -15.234,14.5456 z"
         id="path11788"
         sodipodi:nodetypes="cscc" />
    </g>
    <g
       id="g66920"
       transform="matrix(0.921178,-0.389142,0.411533,0.974186,282.863,-82.3338)"
       style="stroke-width:0.194483">
      <path
         style="fill:url(#linearGradient54501);fill-opacity:1;fill-rule:evenodd;stroke:#000000;stroke-width:0.97394;stroke-linecap:butt;stroke-linejoin:miter;stroke-miterlimit:4;stroke-dasharray:none;stroke-opacity:0.693798"
         d="m -262.248,9.69083 c 1.695,-13.37417 -3.066,-23.15003 -7.266,-23.32813 -3.329,-0.1411 -12.695,17.05953 -12.342,19.99677 0.305,2.53708 2.835,8.24143 5.87,11.98973 z"
         id="path17350"
         sodipodi:nodetypes="csscc" />
      <path
         style="fill:url(#linearGradient53771);fill-opacity:1;fill-rule:evenodd;stroke:#000000;stroke-width:0.97394;stroke-linecap:butt;stroke-linejoin:miter;stroke-miterlimit:4;stroke-dasharray:none;stroke-opacity:0.693798"
         d="m -263.925,8.40543 c 1.389,-10.94653 -2.488,-18.94493 -5.912,-19.08863 -2.712,-0.1138 -10.355,13.96803 -10.069,16.37174 0.247,2.07622 2.307,6.74356 4.78,9.80996 z"
         id="path18513"
         sodipodi:nodetypes="csscc" />
    </g>
    <path
       style="fill:#c48a51;fill-opacity:1;fill-rule:evenodd;stroke:#000000;stroke-width:1px;stroke-linecap:butt;stroke-linejoin:miter;stroke-opacity:1"
       d="m 30.6859,130.949 c 0.737,1.631 -7.329,-13.868 -6.151,-21.996 1.126,-7.768 6.904,-16.3574 7.477,-24.0475 0.57,-7.6583 -4.79,-21.1193 -4.79,-21.1193 1.566,-1.895 2.651,-3.9508 5.701,-5.3514 -2.488,0.5293 -5.128,2.7198 -7.456,1.4913 2.668,-1.7747 6.425,-5.6014 6.545,-7.2154 0.12,-1.6141 -0.404,-12.8791 0.725,-13.2897 l -4.231,4.9878 c 1.038,-3.8699 0.224,-7.8135 4.417,-8.5296 l -6.152,1.3049 c 2.104,-3.6974 4.599,-5.6907 9.238,-5.8266 l 1.02,-9.6666 c 1.259,3.6716 1.264,6.894 2.957,8.4096 -1.563,-2.0228 -2.064,-8.4157 -2.933,-11.5072 5.911,-0.5075 8.433,9.1316 9.66,6.7785 -0.328,-2.5372 -0.917,-4.9908 -2.238,-7.3753 2.549,-0.4522 4.446,7.1141 5.079,7.9438 1.773,0.1572 8.102,-10.0394 7.602,-10.9389 -0.567,3.1068 -0.08,6.2136 -2.05,9.3204 l 3.728,-3.7282 c -0.394,1.2149 -0.643,2.4782 -2.051,3.3554 4.62,-0.9494 7.329,0.4568 11.431,3.3061 l 4.158,-7.2906 c -0.157,3.7582 -3.5,7.0128 -2.199,9.9609 2.404,3.1441 2.82,1.4214 2.354,0.3877 -1.864,-4.1318 6.82,-8.3921 8.467,-6.0326 -1.278,2.3382 -3.264,4.622 -2.401,7.1249 1.358,-1.7732 2.714,-3.5437 3.728,-4.2874 -0.41,3.5853 -0.726,7.9752 -3.816,10.2205 l 3.048,-1.048 -3.223,6.1181 c -0.088,0.9974 1.0854,-2.7086 5.9423,-1.1972 -2.693,3.2078 2.0267,7.6914 -3.6283,7.1573 2.565,1.2888 2.25,2.544 2.489,5.9932 l -4.353,-3.7563 c 2.973,0 -1.876,11.2726 -0.703,9.6801 1.041,-1.4121 -0.25,-9.4373 -2.094,-8.9345 3.588,8.662 -14.837,14.274 -20.132,22.928 l -9.506,63.9398 c -5.507,-5.64 -5.171,-9.324 -15.659,-7.27 z"
       id="path61304"
       sodipodi:nodetypes="cssccczcccccccccccccccccccccccccccccscccc" />
    <path
       style="fill:url(#linearGradient129825);fill-opacity:1;fill-rule:evenodd;stroke:url(#linearGradient129323);stroke-width:1px;stroke-linecap:butt;stroke-linejoin:miter;stroke-opacity:1"
       d="m 104.799,163.096 -38.0231,-4.204 c -9.543,-3.287 -15.436,-17.106 -31.091,-34.811 0.51,-3.338 -1.631,-1.056 -0.174,-5.518 -0.218,-0.864 10.929,5.472 10.966,6.058 1.292,-1.073 -9.092,-12.909 -11.599,-11.52 3.764,-1.365 6.638,-4.568 8.787,-8.17 l -5.096,2.819 c 6.204,-6.233 6.603,-13.9574 4.372,-24.5311 l 5.645,-6.5769 -7.025,5.3364 c -1.32,-2.7645 1.231,-5.3768 4.995,-8.1431 l -5.998,2.1903 c 1.648,-5.1498 11.173,-2.8831 13.84,-4.0462 3.651,-1.5929 18.397,-14.0726 20.038,-14.1945 1.939,-0.1439 1.737,-4.7572 2.358,-7.2416 1.292,4.8117 1.253,11.2331 3.366,16.2208 -3.739,0.7854 -6.808,2.3149 -9.429,4.3418 l 6.729,-2.1875 c -4.058,2.2473 -5.407,5.0649 -7.213,7.7862 3.067,-2.3304 6.706,-11.8035 10.377,-4.4963 l -3.069,-0.2823 c 1.955,-1.9099 7.887,10.7929 7.024,10.3759 -0.95,-0.4582 -7.118,-6.1127 -7.118,-6.1127 2.767,3.1593 6.419,5.7348 8.002,9.6487 1.48,3.6577 3.02,8.2567 4.512,12.4207 0.467,-0.467 10.006,13.6994 13.1811,15.5544 8.082,4.721 5.914,49.987 1.643,49.283 z"
       id="path78624"
       sodipodi:nodetypes="cccccccccccccsscccccccscscsc" />
    <path
       style="fill:#754735;fill-opacity:1;fill-rule:evenodd;stroke:#000000;stroke-width:1px;stroke-linecap:butt;stroke-linejoin:miter;stroke-opacity:1"
       d="m 43.2859,162.888 c -2.091,5.271 2.653,13.639 18.98,18.717 -4.444,-0.366 -27.449,-5.95 -28.207,-2.636 -4.874,4.777 -6.045,12.512 2.761,11.04"
       id="path170213"
       sodipodi:nodetypes="cccc" />
    <path
       style="fill:none;fill-rule:evenodd;stroke:#000000;stroke-width:1px;stroke-linecap:butt;stroke-linejoin:miter;stroke-opacity:1"
       d="m 107.782,124.122 c -0.426,8.451 2.395,27.34 -1.864,35.791"
       id="path174234"
       sodipodi:nodetypes="cc" />
    <path
       style="fill:#c28850;fill-opacity:1;fill-rule:evenodd;stroke:url(#linearGradient174776);stroke-width:1px;stroke-linecap:butt;stroke-linejoin:miter;stroke-opacity:1"
       d="m 24.5539,113.128 c 4.955,-1.73 12.702,6.182 23.758,23.597 -0.07,9.363 -4.434,22.454 -6.682,33.894 -0.803,4.295 1.185,8.519 0.82,12.017 -0.414,3.972 -3.11,19.619 -6.183,21.976 -3.805,2.919 -9.871,2.746 -6.338,-3.915 -0.71,2.338 -1.736,6.65 -5.394,4.693 -1.827,-0.977 -3.292,-2.545 -0.428,-7.555 -1.645,3.731 -2.421,5.835 -3.442,4.163 -0.876,-1.433 -0.04,-5.999 1.794,-5.999 1.215,0 10.277,0.515 11.626,-10.226 0.486,-3.87 -2.648,-8.236 -2.292,-10.121 1.614,-8.538 -2.249,-17.946 -2.839,-27.029 -0.331,-5.092 2.808,-14.991 0.619,-19.812 -3.338,-7.349 -3.948,-8.683 -5.019,-15.683 z"
       id="path133269"
       sodipodi:nodetypes="cccsscscssssssc" />
    <path
       style="fill:url(#linearGradient176257);fill-opacity:1;fill-rule:evenodd;stroke:none;stroke-width:1px;stroke-linecap:butt;stroke-linejoin:miter;stroke-opacity:1"
       d="m 59.3159,153.203 c 0,0 -8.948,-10.812 -11.185,-15.472 -2.237,-4.66 -12.38,-18.089 -12.38,-18.089 l 0.337,-3.222 10.555,7.951 -7.189,-10.936 13.446,9.756 1.185,7.52 c 2.858,2.252 9.722,5.296 14.365,20.442 z"
       id="path176216"
       sodipodi:nodetypes="cscccccccc" />
    <path
       style="fill:none;fill-rule:evenodd;stroke:#000000;stroke-width:1px;stroke-linecap:butt;stroke-linejoin:miter;stroke-opacity:1"
       d="m 36.0149,118.531 c 5.219,6.524 13.66,22.267 15.145,24.886 2.449,4.316 6.78,10.44 8.715,10.345"
       id="path189532"
       sodipodi:nodetypes="csc" />
    <path
       style="fill:#c48a51;fill-opacity:1;fill-rule:evenodd;stroke:none;stroke-width:1px;stroke-linecap:butt;stroke-linejoin:miter;stroke-opacity:0.243243"
       d="m 108.528,141.179 c -0.889,6.092 0.52,9.472 -1.621,18.301 4.243,2.324 7.283,4.346 8.145,11.711 -1.891,-1.596 -3.758,-3.042 -5.405,-3.169 3.767,-0.151 5.301,11.546 4.287,13.794 -0.258,0.572 -1.963,-4.203 -2.237,-4.66 2.902,3.676 -10.124,16.593 -7.55,16.124 5.966,-1.085 14.548,-15.954 14.54,-18.593 0,-2.639 4.707,-11.52 0.841,-17.592 -3.492,-5.483 -11.286,-15.318 -11,-15.916 z"
       id="path190202"
       sodipodi:nodetypes="ccccscszsc" />
    <ellipse
       style="color:#000000;overflow:visible;fill:url(#radialGradient196688);fill-opacity:1;stroke:none;stroke-width:1;stroke-miterlimit:4;stroke-dasharray:none;stroke-opacity:0.243243;stop-color:#000000"
       id="path196658"
       cx="91.0739"
       cy="131.034"
       rx="20.9541"
       ry="32.5723" />
    <path
       style="fill:url(#linearGradient182076);fill-opacity:1;fill-rule:evenodd;stroke:url(#linearGradient181718);stroke-width:1px;stroke-linecap:butt;stroke-linejoin:miter;stroke-opacity:0.996139"
       d="m 55.2699,131.375 c -3.181,-1.474 17.235,-19.533 29.262,-28.208 -2.064,7.391 -6.78,19.415 -5.8,22.145 0.98,2.73 5.75,10.728 7.66,15.91 -1.23,-2.195 -1.948,-3.325 -3.178,-4.575 4.991,10.86 0.784,23.977 0.805,33.868 0,0 1.023,5.24 1.023,7.613 0,2.373 -1.564,7.553 -1.564,7.553 0.599,5.209 -1.525,10.18 5.954,15.772 3.746,2.801 1.232,8.513 -1.072,8.592 -1.004,-3.648 -1.247,-5.862 -3.503,-8.686 3.104,3.881 3.821,9.738 0.372,9.816 -5.242,0.12 -3.637,-4.701 -5.024,-8.139 -0.03,2.71 2.164,6.681 0.123,7.179 -2.295,0.559 -6.098,-3.186 -6.216,-5.445 -0.117,-2.26 1.135,-18.51 1.13,-20.547 0,-2.264 -1.922,-3.65 -1.332,-7.303 2.24,-13.868 -7.314,-40.297 -18.64,-45.545 z"
       id="path142343"
       sodipodi:nodetypes="sczcccscsccscszsss" />
    <path
       style="fill:url(#linearGradient210915);fill-opacity:1;fill-rule:evenodd;stroke:none;stroke-width:1px;stroke-linecap:butt;stroke-linejoin:miter;stroke-opacity:1"
       d="m 93.1639,194.254 c 0.771,0 6.695,7.053 6.064,7.348 l 5.6351,-3.393 c -2.763,-1.873 -3.542,-5.508 -5.6031,-8.239"
       id="path210696"
       sodipodi:nodetypes="cccc" />
    <path
       style="fill:url(#linearGradient10753);fill-opacity:1;fill-rule:evenodd;stroke:#000000;stroke-width:1.4;stroke-linecap:butt;stroke-linejoin:miter;stroke-miterlimit:4;stroke-dasharray:none;stroke-opacity:0.976744"
       d="M 73.7307,72.9893 C 69.9632,80.6555 56.2988,78.0416 52.3951,72.8259 48.4926,67.6104 77.4982,65.323 73.7307,72.9893 Z"
       id="path10633"
       sodipodi:nodetypes="zzz" />
    <path
       style="font-variation-settings:normal;vector-effect:none;fill:url(#linearGradient49043);fill-opacity:1;fill-rule:evenodd;stroke:#000000;stroke-width:1.00157;stroke-linecap:butt;stroke-linejoin:miter;stroke-miterlimit:4;stroke-dasharray:none;stroke-dashoffset:0;stroke-opacity:1;-inkscape-stroke:none;stop-color:#000000"
       d="m 41.0873,64.6706 c -1.3422,-3.6334 -0.3606,-7.7164 2.5059,-6.8105 -4.9594,-3.3735 -3.8852,-4.4118 -4.833,-6.3563 0.9097,-4.3724 6.1927,-21.2207 9.8098,-15.9937 7.292,10.5399 12.0879,9.912 13.8801,-3.454 0.6711,-5.0096 10.0865,4.524 14.5186,9.1344 L 75.39,49.3618 c 2.2934,0.7621 3.2064,2.7894 3.5823,4.9244 -0.4957,4.158 -3.2827,6.3505 -2.0505,10.6756 -1.1712,10.1857 -7.9957,7.8667 -9.9895,8.0758 -3.1628,1.7403 -7.4096,3.4652 -11.5454,2.2617 C 49.1692,72.4424 45.0432,67.9165 41.0873,64.6706 Z"
       id="path8788"
       sodipodi:nodetypes="cccssccccccc" />
    <ellipse
       style="color:#000000;overflow:visible;fill:#1b1511;fill-opacity:1;stroke:#000000;stroke-width:1.00164;stroke-miterlimit:4;stroke-dasharray:none;stroke-opacity:1;stop-color:#000000"
       id="ellipse8804"
       cx="41.1715"
       cy="83.5508"
       rx="5.87449"
       ry="4.64107"
       transform="matrix(0.953309,-0.301996,0.317897,0.948125,0,0)" />
    <ellipse
       style="color:#000000;overflow:visible;fill:url(#linearGradient8820);fill-opacity:1;stroke:#000000;stroke-width:1.00004;stroke-miterlimit:4;stroke-dasharray:none;stroke-opacity:1;stop-color:#000000"
       id="ellipse8806"
       cx="41.124"
       cy="82.0891"
       rx="4.53011"
       ry="2.39369"
       transform="matrix(0.952681,-0.303972,0.315869,0.948803,0,0)" />
    <ellipse
       style="color:#000000;overflow:visible;fill:#29221b;fill-opacity:1;stroke:none;stroke-width:1.00232;stroke-miterlimit:4;stroke-dasharray:none;stroke-opacity:1;stop-color:#000000"
       id="ellipse8808"
       cx="38.9838"
       cy="81.0039"
       rx="3.42542"
       ry="1.95742"
       transform="matrix(0.958382,-0.285489,0.337594,0.941292,0,0)" />
    <path
       style="fill:none;fill-rule:evenodd;stroke:#000000;stroke-width:1px;stroke-linecap:butt;stroke-linejoin:miter;stroke-opacity:1"
       d="m 56.6011,61.8408 c -0.2524,0.6733 3.1712,7.2254 3.6744,7.0845"
       id="path8810"
       sodipodi:nodetypes="cc" />
    <path
       style="fill:none;fill-rule:evenodd;stroke:#000000;stroke-width:1px;stroke-linecap:butt;stroke-linejoin:miter;stroke-opacity:1"
       d="m 63.0112,48.8812 -0.7605,2.5033 c 3.226,3.852 6.1687,8.6725 9.1333,13.4181"
       id="path8812"
       sodipodi:nodetypes="ccc" />
    <ellipse
       style="color:#000000;overflow:visible;fill:url(#radialGradient8818);fill-opacity:1;stroke:none;stroke-width:1.00171;stroke-miterlimit:4;stroke-dasharray:none;stroke-opacity:1;stop-color:#000000"
       id="ellipse8814"
       cx="21.6713"
       cy="83.4854"
       rx="2.01334"
       ry="5.49833"
       transform="matrix(0.841102,-0.540876,0.560603,0.828085,0,0)" />
    <path
       style="fill:none;fill-rule:evenodd;stroke:#000000;stroke-width:1.4;stroke-linecap:butt;stroke-linejoin:miter;stroke-miterlimit:4;stroke-dasharray:none;stroke-opacity:1"
       d="m 73.5875,60.1278 c 0.039,0.6129 4.4007,4.9176 2.5869,8.9807"
       id="path8816"
       sodipodi:nodetypes="cc" />
    <ellipse
       style="color:#000000;overflow:visible;fill:#ffffff;fill-opacity:1;stroke:#000000;stroke-width:1.40035;stroke-miterlimit:4;stroke-dasharray:none;stroke-opacity:1;stop-color:#000000"
       id="path16069"
       cx="42.8153"
       cy="56.5842"
       rx="3.90711"
       ry="4.5037"
       transform="matrix(0.994321,-0.106426,0.137164,0.990548,0,0)" />
    <ellipse
       style="color:#000000;overflow:visible;fill:#ffffff;fill-opacity:1;stroke:#000000;stroke-width:1.40002;stroke-miterlimit:4;stroke-dasharray:none;stroke-opacity:1;stop-color:#000000"
       id="ellipse16261"
       cx="73.8117"
       cy="41.059"
       rx="3.63062"
       ry="4.7595"
       transform="matrix(0.994249,0.107092,-0.106298,0.994334,0,0)" />
    <ellipse
       style="color:#000000;overflow:visible;fill:#000000;fill-opacity:1;stroke:none;stroke-width:1.00168;stroke-miterlimit:4;stroke-dasharray:none;stroke-opacity:0.593023;stop-color:#000000"
       id="ellipse8794"
       cx="43.157"
       cy="58.6"
       rx="2.64343"
       ry="2.85414"
       transform="matrix(0.99258,-0.121593,0.142439,0.989804,0,0)" />
    <ellipse
       style="color:#000000;overflow:visible;fill:#000000;fill-opacity:1;stroke:none;stroke-width:1.00206;stroke-miterlimit:4;stroke-dasharray:none;stroke-opacity:0.593023;stop-color:#000000"
       id="ellipse8796"
       cx="64.8013"
       cy="53.5562"
       rx="2.63945"
       ry="3.05708"
       transform="matrix(0.998904,-0.0468,0.09072,0.995876,0,0)"
       inkscape:transform-center-x="0.630417"
       inkscape:transform-center-y="-0.0163859" />
    <ellipse
       style="color:#000000;overflow:visible;fill:#ffffff;fill-opacity:1;stroke:none;stroke-width:1.00159;stroke-miterlimit:4;stroke-dasharray:none;stroke-opacity:0.593023;stop-color:#000000"
       id="ellipse8798"
       cx="44.2979"
       cy="59.586"
       rx="0.601824"
       ry="0.61308"
       transform="matrix(0.991728,-0.128355,0.134962,0.990851,0,0)" />
    <ellipse
       style="color:#000000;overflow:visible;fill:#ffffff;fill-opacity:1;stroke:none;stroke-width:1.00159;stroke-miterlimit:4;stroke-dasharray:none;stroke-opacity:0.593023;stop-color:#000000"
       id="ellipse8800"
       cx="62.3929"
       cy="59.3457"
       transform="matrix(0.991728,-0.128355,0.134962,0.990851,0,0)"
       rx="0.601824"
       ry="0.587167" />
    <path
       style="fill:none;fill-rule:evenodd;stroke:#000000;stroke-width:1px;stroke-linecap:butt;stroke-linejoin:miter;stroke-opacity:1"
       d="m 50.1018,69.0329 c -0.065,0.7125 4.9605,6.2118 5.4104,5.9528"
       id="path16663"
       sodipodi:nodetypes="cc" />
  </g>
  <circle
     style="color:#000000;font-variation-settings:normal;overflow:visible;opacity:1;vector-effect:none;fill:#fefdf2;fill-opacity:1;stroke:#8bd93e;stroke-width:2;stroke-linecap:butt;stroke-linejoin:miter;stroke-miterlimit:4;stroke-dasharray:none;stroke-dashoffset:0;stroke-opacity:1;-inkscape-stroke:none;stop-color:#000000;stop-opacity:1"
     id="path265433"
     cx="96.6303"
     cy="46.8413"
     r="7.0027" />
  <circle
     style="color:#000000;font-variation-settings:normal;overflow:visible;opacity:1;vector-effect:none;fill:#fefdf2;fill-opacity:1;stroke:#8bd93e;stroke-width:2;stroke-linecap:butt;stroke-linejoin:miter;stroke-miterlimit:4;stroke-dasharray:none;stroke-dashoffset:0;stroke-opacity:1;-inkscape-stroke:none;stop-color:#000000;stop-opacity:1"
     id="path265435"
     cx="120.226"
     cy="38.1589"
     r="8.15873" />
  <path
     style="fill:#fefdf2;fill-opacity:1;fill-rule:evenodd;stroke:#8bd93e;stroke-width:2;stroke-linecap:butt;stroke-linejoin:miter;stroke-miterlimit:4;stroke-dasharray:none;stroke-opacity:1"
     d="m 148.598,13.4571 c 6.322,-15.45682 30.389,-8.3857 32.092,-2.9079 1.821,-4.7381 21.972,-16.55272 28.838,2.0771 9.57,-0.862 13.051,3.0394 7.985,15.9931 2.99,13.9563 -1.181,21.4274 -29.724,14.9546 -8.462,9.7859 -21.34,6.7328 -32.684,-0.8308 -18.037,9.6513 -17.096,0.2583 -16.119,-11.4236 -10.736,-20.501 1.306,-21.5613 9.612,-17.8625 z"
     id="path265470"
     sodipodi:nodetypes="cccccccc" />
  <g
     id="g5457"
     transform="matrix(0.97689,0,0,0.976277,97.083,-3.9131)"
     style="stroke-width:0.204795">
    <path
       id="path1786"
       style="font-family:'Comic Sans MS';font-variation-settings:normal;vector-effect:none;fill:url(#linearGradient1796);fill-opacity:1;stroke:#000000;stroke-width:0.983015;stroke-linecap:butt;stroke-linejoin:miter;stroke-miterlimit:4;stroke-dasharray:none;stroke-dashoffset:0;stroke-opacity:1;-inkscape-stroke:none;stop-color:#000000"
       d="m 79.7609,190.422 c -8.734,0 -10.526,17.765 -14.965,27.293 v 0.481 c -0.07,0.146 0.106,-0.187 0.106,-0.04 v 0.06 h 0.03 c 0,3.459 16.778,6.262 37.4731,6.262 20.694,0 37.469,-2.804 37.47,-6.262 -0.138,-0.327 0,0.2 0,0 -4.438,-9.529 -6.636,-27.803 -15.37,-27.803 z"
       sodipodi:nodetypes="sccsccsccss" />
    <ellipse
       cx="-67.5965"
       cy="233.272"
       rx="13.9812"
       ry="9.7331"
       transform="matrix(-0.925736,0.37817,0.086548,0.996248,0,0)"
       style="font-family:'Comic Sans MS';fill:url(#radialGradient1794);stroke-width:3.80304"
       id="ellipse1788" />
    <ellipse
       style="color:#000000;font-family:'Comic Sans MS';font-variation-settings:normal;overflow:visible;vector-effect:none;fill:url(#linearGradient1800);fill-opacity:1;stroke:#000000;stroke-width:0.983024;stroke-linecap:butt;stroke-linejoin:miter;stroke-miterlimit:4;stroke-dasharray:none;stroke-dashoffset:0;stroke-opacity:1;-inkscape-stroke:none;stop-color:#000000"
       id="ellipse1798"
       cx="101.858"
       cy="-191.864"
       rx="25.932"
       ry="5.08114"
       transform="scale(1,-1)" />
  </g>
  <g
     id="g5465"
     transform="matrix(1.02903,0,0,1.02911,42.3803,2.2023)"
     style="stroke-width:0.194349">
    <path
       id="path5459"
       style="font-family:'Comic Sans MS';font-variation-settings:normal;vector-effect:none;fill:url(#linearGradient5467);fill-opacity:1;stroke:#000000;stroke-width:0.932873;stroke-linecap:butt;stroke-linejoin:miter;stroke-miterlimit:4;stroke-dasharray:none;stroke-dashoffset:0;stroke-opacity:1;-inkscape-stroke:none;stop-color:#000000"
       d="m 79.7609,190.422 c -8.734,0 -10.526,17.765 -14.965,27.293 v 0.481 c -0.07,0.146 0.106,-0.187 0.106,-0.04 v 0.06 h 0.03 c 0,3.459 16.778,6.262 37.4731,6.262 20.694,0 37.469,-2.804 37.47,-6.262 -0.138,-0.327 0,0.2 0,0 -4.438,-9.529 -6.636,-27.803 -15.37,-27.803 z"
       sodipodi:nodetypes="sccsccsccss" />
    <ellipse
       cx="-67.5965"
       cy="233.272"
       rx="13.9812"
       ry="9.7331"
       transform="matrix(-0.925736,0.37817,0.086548,0.996248,0,0)"
       style="font-family:'Comic Sans MS';fill:url(#radialGradient5469);stroke-width:3.60906"
       id="ellipse5461" />
    <ellipse
       style="color:#000000;font-family:'Comic Sans MS';font-variation-settings:normal;overflow:visible;vector-effect:none;fill:url(#linearGradient5471);fill-opacity:1;stroke:#000000;stroke-width:0.932883;stroke-linecap:butt;stroke-linejoin:miter;stroke-miterlimit:4;stroke-dasharray:none;stroke-dashoffset:0;stroke-opacity:1;-inkscape-stroke:none;stop-color:#000000"
       id="ellipse5463"
       cx="101.858"
       cy="-191.864"
       rx="25.932"
       ry="5.08114"
       transform="scale(1,-1)" />
  </g>
  <g
     id="g5479"
     transform="matrix(1.08392,0,0,1.08473,-22.3678,3.11078)"
     style="stroke-width:0.184446">
    <path
       id="path5473"
       style="font-family:'Comic Sans MS';font-variation-settings:normal;vector-effect:none;fill:url(#linearGradient5481);fill-opacity:1;stroke:#000000;stroke-width:0.88534;stroke-linecap:butt;stroke-linejoin:miter;stroke-miterlimit:4;stroke-dasharray:none;stroke-dashoffset:0;stroke-opacity:1;-inkscape-stroke:none;stop-color:#000000"
       d="m 79.7609,190.422 c -8.734,0 -10.526,17.765 -14.965,27.293 v 0.481 c -0.07,0.146 0.106,-0.187 0.106,-0.04 v 0.06 h 0.03 c 0,3.459 16.778,6.262 37.4731,6.262 20.694,0 37.469,-2.804 37.47,-6.262 -0.138,-0.327 0,0.2 0,0 -4.438,-9.529 -6.636,-27.803 -15.37,-27.803 z"
       sodipodi:nodetypes="sccsccsccss" />
    <ellipse
       cx="-67.5965"
       cy="233.272"
       rx="13.9812"
       ry="9.7331"
       transform="matrix(-0.925736,0.37817,0.086548,0.996248,0,0)"
       style="font-family:'Comic Sans MS';fill:url(#radialGradient5483);stroke-width:3.42516"
       id="ellipse5475" />
    <ellipse
       style="color:#000000;font-family:'Comic Sans MS';font-variation-settings:normal;overflow:visible;vector-effect:none;fill:url(#linearGradient5485);fill-opacity:1;stroke:#000000;stroke-width:0.885342;stroke-linecap:butt;stroke-linejoin:miter;stroke-miterlimit:4;stroke-dasharray:none;stroke-dashoffset:0;stroke-opacity:1;-inkscape-stroke:none;stop-color:#000000"
       id="ellipse5477"
       cx="101.858"
       cy="-191.864"
       rx="25.932"
       ry="5.08114"
       transform="scale(1,-1)" />
  </g>
  <path
     style="font-family:'Comic Sans MS';fill:url(#linearGradient10230);fill-opacity:1;fill-rule:evenodd;stroke:#793000;stroke-width:1.6;stroke-linecap:butt;stroke-linejoin:miter;stroke-miterlimit:4;stroke-dasharray:none;stroke-opacity:1"
     d="m 155.803,29.4254 c 0,0 -10.206,-6.0464 -6.121,-11.4266 4.086,-5.3799 11.454,3.5346 14.814,4.0129 3.362,0.4782 21.779,0.5511 24.465,-1.3998 2.687,-1.9512 9.354,-10.0024 13.02,-6.0737 3.667,3.9287 -0.652,9.1871 -0.652,9.1871 0,0 7.604,7.6703 3.761,9.9851 -3.843,2.3145 -9.436,-3.6315 -12.791,-4.2727 -3.358,-0.6416 -21.749,0.3199 -23.946,2.34 -2.198,2.02 -6.037,8.5286 -11.393,7.2847 -4.182,-0.9707 -1.159,-9.6366 -1.159,-9.6366 z"
     id="path6132"
     sodipodi:nodetypes="cszzscszzsc" />
</svg>
